# xmcd
#
# Track frame offsets: 
#        150
#        66200
#        120025
#        166075
#        222782
#
# Disc length: 3624 seconds
#
# Revision: 3
# Processed by: cddbd v1.5.2PL0 Copyright (c) Steve Scherf et al.
# Submitted via: ExactAudioCopy v1.2
#
DISCID=360e2605
DTITLE=Chet Baker - The Enja Heritage Collection - I Remember You (Leg
DTITLE=acy Vol.2)
DYEAR=1996
DGENRE=Jazz
TTITLE0=But Not for Me
TTITLE1=Broken Wing
TTITLE2=Nardis
TTITLE3=You Go to My Head
TTITLE4=Just Friends
EXTD=
EXTT0=
EXTT1=
EXTT2=
EXTT3=
EXTT4=
PLAYORDER=
